<svg width="60" height="60" viewBox="0 0 60 60" fill="none" xmlns="http://www.w3.org/2000/svg">
<path d="M55.4869 44.0544L34.8692 8.42944C34.3746 7.57627 33.6645 6.86805 32.81 6.37573C31.9555 5.88341 30.9866 5.62427 30.0004 5.62427C29.0143 5.62427 28.0454 5.88341 27.1909 6.37573C26.3364 6.86805 25.6263 7.57627 25.1317 8.42944V8.43127L4.51399 44.0544C4.01898 44.9093 3.75786 45.8795 3.7569 46.8674C3.75594 47.8553 4.01519 48.826 4.50854 49.6818C5.0019 50.5377 5.71197 51.2485 6.5673 51.7428C7.42263 52.2371 8.39306 52.4973 9.38093 52.4974H50.6199C51.6078 52.4973 52.5782 52.2371 53.4336 51.7428C54.2889 51.2485 54.999 50.5377 55.4923 49.6818C55.9857 48.826 56.2449 47.8553 56.244 46.8674C56.243 45.8795 55.9819 44.9093 55.4869 44.0544ZM28.1236 24.3743C28.1236 23.877 28.3212 23.4001 28.6728 23.0484C29.0244 22.6968 29.5013 22.4993 29.9986 22.4993C30.4959 22.4993 30.9728 22.6968 31.3244 23.0484C31.6761 23.4001 31.8736 23.877 31.8736 24.3743V33.7493C31.8736 34.2465 31.6761 34.7235 31.3244 35.0751C30.9728 35.4267 30.4959 35.6243 29.9986 35.6243C29.5013 35.6243 29.0244 35.4267 28.6728 35.0751C28.3212 34.7235 28.1236 34.2465 28.1236 33.7493V24.3743ZM30 44.9999C29.4437 44.9999 28.9 44.835 28.4374 44.5259C27.9749 44.2169 27.6144 43.7777 27.4016 43.2637C27.1887 42.7498 27.133 42.1843 27.2415 41.6387C27.35 41.0932 27.6179 40.592 28.0112 40.1987C28.4046 39.8054 28.9057 39.5375 29.4513 39.429C29.9969 39.3205 30.5624 39.3762 31.0763 39.589C31.5902 39.8019 32.0294 40.1624 32.3385 40.6249C32.6475 41.0874 32.8125 41.6312 32.8125 42.1874C32.8124 42.9333 32.5161 43.6487 31.9887 44.1761C31.4612 44.7036 30.7459 44.9999 30 44.9999Z" fill="#DBC08D"/>
</svg>
